STARTFONT 2.1
FONT -misc-Spleen-Medium-R-Normal--52-500-75-75-C-260-ISO10646-1
SIZE 50 75 75
FONTBOUNDINGBOX 26 52 0 -10
COMMENT "Generated by fontforge, http://fontforge.sourceforge.net"
COMMENT "Copyright (c) 2018-2019, Frederic Cambus"
STARTPROPERTIES 32
FOUNDRY "misc"
FAMILY_NAME "Spleen"
WEIGHT_NAME "Medium"
SLANT "R"
SETWIDTH_NAME "Normal"
ADD_STYLE_NAME ""
PIXEL_SIZE 52
POINT_SIZE 500
RESOLUTION_X 75
RESOLUTION_Y 75
SPACING "C"
AVERAGE_WIDTH 260
CHARSET_REGISTRY "ISO10646"
CHARSET_ENCODING "1"
FONTNAME_REGISTRY ""
CHARSET_COLLECTIONS "ISO10646-1"
FONT_NAME "Spleenmedium"
FACE_NAME "Spleen medium"
COPYRIGHT "Copyright (c) 2018-2019, Frederic Cambus"
FONT_VERSION "001.000"
FONT_ASCENT 42
FONT_DESCENT 10
UNDERLINE_POSITION -5
UNDERLINE_THICKNESS 3
X_HEIGHT 22
CAP_HEIGHT 31
RAW_ASCENT 812
RAW_DESCENT 188
NORM_SPACE 26
FIGURE_WIDTH 26
AVG_LOWERCASE_WIDTH 260
AVG_UPPERCASE_WIDTH 260
ENDPROPERTIES
CHARS 192
STARTCHAR SPACE
ENCODING 32
SWIDTH 500 0
DWIDTH 26 0
BBX 1 1 25 -10
BITMAP
00
ENDCHAR
STARTCHAR EXCLAMATION
ENCODING 33
SWIDTH 500 0
DWIDTH 26 0
BBX 4 32 11 0
BITMAP
F0
F0
F0
F0
F0
F0
F0
F0
F0
F0
F0
F0
F0
F0
F0
F0
F0
F0
F0
F0
F0
F0
00
00
00
00
00
60
F0
F0
F0
F0
ENDCHAR
STARTCHAR QUOTATION
ENCODING 34
SWIDTH 500 0
DWIDTH 26 0
BBX 16 14 5 22
BITMAP
2002
E007
E007
E007
E007
E007
E007
E007
E007
E007
E007
E007
E007
E007
ENDCHAR
STARTCHAR NUMBER
ENCODING 35
SWIDTH 500 0
DWIDTH 26 0
BBX 22 32 2 0
BITMAP
1C00E0
1C00E0
1C00E0
1C00E0
1C00E0
1C00E0
FFFFFC
FFFFFC
FFFFFC
FFFFFC
1C00E0
1C00E0
1C00E0
1C00E0
1C00E0
1C00E0
1C00E0
1C00E0
1C00E0
1C00E0
1C00E0
1C00E0
3E01F0
FFFFFC
FFFFFC
FFFFFC
1C00E0
1C00E0
1C00E0
1C00E0
1C00E0
1C00E0
ENDCHAR
STARTCHAR DOLLAR
ENCODING 36
SWIDTH 500 0
DWIDTH 26 0
BBX 20 38 3 -3
BITMAP
00F000
00F000
00F000
0FFFF0
3FFFF0
3FFFF0
F8F000
F8F000
F0F000
E0F000
E0F000
E0F000
F0F000
E0F000
F8F000
F8F000
3FFF80
1FFFC0
0FFFC0
00F1F0
00F1F0
00F0F0
00F070
00F0F0
00F0F0
00F070
00F0F0
00F0F0
00F070
00F0F0
00F1F0
00F1F0
FFFFC0
FFFFC0
FFFF80
00F000
00F000
00F000
ENDCHAR
STARTCHAR PERCENT
ENCODING 37
SWIDTH 500 0
DWIDTH 26 0
BBX 18 32 5 0
BITMAP
0003C0
3C03C0
3C03C0
E70700
E70700
E70700
E71E00
E71E00
3C1E00
3C3C00
003800
003800
007800
00E000
00E000
00E000
03C000
03C000
03C000
070000
070000
070000
0E0000
1C1F00
1C3BC0
1C39C0
783BC0
3839C0
783BC0
E01F00
E00F00
E00000
ENDCHAR
STARTCHAR AMPERSAND
ENCODING 38
SWIDTH 500 0
DWIDTH 26 0
BBX 22 32 2 0
BITMAP
03FF00
07FF80
07FFC0
1F03E0
1E01E0
1C00E0
1C00E0
1C00E0
1C00E0
1C00E0
1C00E0
1F03E0
1F03E0
0FFFC0
03FF00
03FF00
1FF800
1FF800
7FFC00
F81F38
F01F78
E007F8
E003F0
E003E0
E003C0
E003C0
E003E0
F007F0
F807F8
7FFF7C
3FFF3C
1FFC1C
ENDCHAR
STARTCHAR APOSTROPHE
ENCODING 39
SWIDTH 500 0
DWIDTH 26 0
BBX 4 13 11 22
BITMAP
F0
F0
F0
F0
F0
F0
F0
F0
F0
F0
F0
F0
60
ENDCHAR
STARTCHAR LEFT
ENCODING 40
SWIDTH 500 0
DWIDTH 26 0
BBX 18 42 5 -5
BITMAP
001FC0
003FC0
00FFC0
03F800
03F800
07C000
1F0000
1F0000
1C0000
1C0000
7C0000
380000
780000
F80000
F00000
E00000
E00000
E00000
E00000
E00000
E00000
E00000
E00000
E00000
E00000
E00000
E00000
F00000
F80000
780000
380000
7C0000
1C0000
1C0000
1F0000
1F0000
07C000
03F800
03F800
00FFC0
001FC0
001FC0
ENDCHAR
STARTCHAR RIGHT
ENCODING 41
SWIDTH 500 0
DWIDTH 26 0
BBX 18 42 3 -5
BITMAP
FE0000
FE8000
FFC000
07F000
07F000
00F800
003E00
003E00
000E00
000E00
000F80
000780
000780
0007C0
0003C0
0001C0
0001C0
0001C0
0001C0
0001C0
0001C0
0001C0
0001C0
0001C0
0001C0
0001C0
0001C0
0003C0
0007C0
000780
000700
000F80
000E00
000E00
003E00
003E00
00F800
07F000
07F000
FFC000
FE0000
FE0000
ENDCHAR
STARTCHAR ASTERISK
ENCODING 42
SWIDTH 500 0
DWIDTH 26 0
BBX 22 23 2 3
BITMAP
1C00E0
1C00E0
1F03E0
1F87E0
0787C0
03FF00
03FF00
00FC00
00FC00
00FC00
FFFFFC
FFFFFC
FFFFFC
00FC00
00FC00
00FC00
01FE00
03FF00
078780
0F87C0
1F03E0
1C00E0
1C00E0
ENDCHAR
STARTCHAR PLUS
ENCODING 43
SWIDTH 500 0
DWIDTH 26 0
BBX 16 17 5 6
BITMAP
0180
03C0
03C0
03C0
03C0
03C0
03C0
FFFF
FFFF
FFFF
03C0
03C0
03C0
03C0
03C0
03C0
0180
ENDCHAR
STARTCHAR COMMA
ENCODING 44
SWIDTH 500 0
DWIDTH 26 0
BBX 7 9 8 -3
BITMAP
1E
1E
1E
1E
1E
3E
F8
F8
E0
ENDCHAR
STARTCHAR HYPHEN-MINUS
ENCODING 45
SWIDTH 500 0
DWIDTH 26 0
BBX 20 3 3 13
BITMAP
FFFFF0
FFFFF0
FFFFF0
ENDCHAR
STARTCHAR FULL
ENCODING 46
SWIDTH 500 0
DWIDTH 26 0
BBX 4 5 11 0
BITMAP
60
F0
F0
F0
F0
ENDCHAR
STARTCHAR SOLIDUS
ENCODING 47
SWIDTH 500 0
DWIDTH 26 0
BBX 22 42 2 -5
BITMAP
00001C
00001C
00001C
000038
000078
000078
0000E0
0000E0
0000E0
0000E0
0003C0
0003C0
000380
000700
000700
000700
001C00
001C00
001C00
003800
007800
007800
007000
00E000
00E000
00E000
038000
038000
038000
070000
070000
0F0000
1C0000
1C0000
1C0000
1C0000
780000
700000
700000
E00000
E00000
E00000
ENDCHAR
STARTCHAR DIGIT
ENCODING 48
SWIDTH 500 0
DWIDTH 26 0
BBX 20 32 3 0
BITMAP
0FFF80
3FFFC0
3FFFC0
F801F0
F801F0
F000F0
E000F0
E000F0
E001F0
F003F0
E007F0
E00FF0
E01FF0
F03EF0
E07CF0
E0F8F0
F1F0F0
E3E070
F7C0F0
FF8070
FF00F0
FE00F0
FC0070
F800F0
F000F0
E00070
F000F0
F801F0
F801F0
3FFFC0
3FFFC0
1FFF80
ENDCHAR
STARTCHAR DIGIT
ENCODING 49
SWIDTH 500 0
DWIDTH 26 0
BBX 16 32 5 0
BITMAP
07C0
1FC0
1FC0
3BC0
73C0
E3C0
C3C0
83C0
03C0
03C0
03C0
03C0
03C0
03C0
03C0
03C0
03C0
03C0
03C0
03C0
03C0
03C0
03C0
03C0
03C0
03C0
03C0
03C0
03C0
FFFF
FFFF
FFFF
ENDCHAR
STARTCHAR DIGIT
ENCODING 50
SWIDTH 500 0
DWIDTH 26 0
BBX 20 32 3 0
BITMAP
0FFF80
3FFFC0
3FFFC0
F801F0
F801F0
F000F0
0000F0
0000F0
0000F0
0000F0
0000F0
0001C0
0001C0
000780
000E00
000E00
003800
003800
00F000
01C000
01C000
070000
060000
1E0000
380000
380000
F000F0
E00070
F000F0
FFFFF0
FFFFF0
FFFFF0
ENDCHAR
STARTCHAR DIGIT
ENCODING 51
SWIDTH 500 0
DWIDTH 26 0
BBX 20 32 3 0
BITMAP
0FFF80
3FFFC0
3FFFC0
F801F0
F801F0
F000F0
0000F0
0000F0
0000F0
0000F0
0000F0
0001C0
0001C0
07FF80
07FF80
07FF80
0001C0
0001C0
0000F0
000070
0000F0
0000F0
000070
0000F0
0000F0
000070
F000F0
F801F0
F801F0
3FFFC0
3FFFC0
1FFF80
ENDCHAR
STARTCHAR DIGIT
ENCODING 52
SWIDTH 500 0
DWIDTH 26 0
BBX 20 32 3 0
BITMAP
E00000
F00000
E00000
E00000
E00000
F00000
E00700
E00780
E00780
F00780
E00780
E00780
E00780
F00780
E00780
E00780
F00780
E00700
F00780
FFFFF0
FFFFF0
FFFFF0
000780
000780
000780
000700
000780
000700
000780
000780
000700
000780
ENDCHAR
STARTCHAR DIGIT
ENCODING 53
SWIDTH 500 0
DWIDTH 26 0
BBX 20 32 3 0
BITMAP
FFFFF0
FFFFF0
FFFFF0
E000F0
E000F0
F000F0
E00000
E00000
E00000
F00000
E00000
E00000
F00000
FFFF80
FFFFC0
FFFFC0
0001F0
0001F0
0000F0
000070
0000F0
0000F0
000070
0000F0
0000F0
000070
F000F0
F801F0
F801F0
3FFFC0
3FFFC0
1FFF80
ENDCHAR
STARTCHAR DIGIT
ENCODING 54
SWIDTH 500 0
DWIDTH 26 0
BBX 20 32 3 0
BITMAP
0FFF80
3FFFC0
3FFFC0
F801F0
F801F0
F000F0
E00000
E00000
E00000
F00000
E00000
E00000
F00000
FFFF80
FFFFC0
FFFFC0
F001F0
E001F0
F000F0
E00070
F000F0
F000F0
E00070
F000F0
F000F0
E00070
F000F0
F801F0
F801F0
3FFFC0
3FFFC0
1FFF80
ENDCHAR
STARTCHAR DIGIT
ENCODING 55
SWIDTH 500 0
DWIDTH 26 0
BBX 20 32 3 0
BITMAP
FFFFF0
FFFFF0
FFFFF0
E000F0
E000F0
F000F0
0000F0
0000F0
0000F0
0000F0
0000F0
0001C0
0001C0
000780
000E00
000E00
003800
003800
00F000
01C000
01C000
01C000
01C000
01C000
01C000
01C000
01C000
01C000
01C000
01C000
01C000
01C000
ENDCHAR
STARTCHAR DIGIT
ENCODING 56
SWIDTH 500 0
DWIDTH 26 0
BBX 20 32 3 0
BITMAP
0FFF80
3FFFC0
3FFFC0
F801F0
F801F0
F000F0
E000F0
E000F0
E000F0
F000F0
E000F0
3801C0
3801C0
1FFF80
0FFF80
0FFF80
3801C0
3801C0
F000F0
E00070
F000F0
F000F0
E00070
F000F0
F000F0
E00070
F000F0
F801F0
F801F0
3FFFC0
3FFFC0
1FFF80
ENDCHAR
STARTCHAR DIGIT
ENCODING 57
SWIDTH 500 0
DWIDTH 26 0
BBX 20 32 3 0
BITMAP
0FFF80
3FFFC0
3FFFC0
F801F0
F801F0
F000F0
E000F0
E000F0
E000F0
F000F0
E000F0
E000F0
E000F0
F000F0
F800F0
F800F0
3FFFF0
3FFFF0
1FFFF0
0000F0
0000F0
0000F0
000070
0000F0
0000F0
000070
F000F0
F801F0
F801F0
3FFFC0
3FFFC0
1FFF80
ENDCHAR
STARTCHAR COLON
ENCODING 58
SWIDTH 500 0
DWIDTH 26 0
BBX 4 21 11 0
BITMAP
F0
F0
F0
F0
F0
00
00
00
00
00
00
00
00
00
00
00
60
F0
F0
F0
F0
ENDCHAR
STARTCHAR SEMICOLON
ENCODING 59
SWIDTH 500 0
DWIDTH 26 0
BBX 7 24 8 -3
BITMAP
1E
1E
1E
1E
1E
00
00
00
00
00
00
00
00
00
00
1E
1E
1E
1E
1E
3E
F8
F8
E0
ENDCHAR
STARTCHAR LESS-THAN
ENCODING 60
SWIDTH 500 0
DWIDTH 26 0
BBX 20 32 3 0
BITMAP
0001F0
0003C0
0007C0
000F80
001F00
003E00
007800
00F800
01F000
03E000
07C000
0F0000
1F0000
3E0000
780000
F80000
F80000
780000
3E0000
1F0000
0F0000
07C000
03C000
01F000
00F800
007800
003E00
001F00
000F80
0007C0
0003C0
0001F0
ENDCHAR
STARTCHAR EQUALS
ENCODING 61
SWIDTH 500 0
DWIDTH 26 0
BBX 20 13 3 10
BITMAP
7FFFE0
FFFFF0
FFFFF0
FFFFF0
000000
000000
000000
000000
000000
000000
FFFFF0
FFFFF0
FFFFF0
ENDCHAR
STARTCHAR GREATER-THAN
ENCODING 62
SWIDTH 500 0
DWIDTH 26 0
BBX 20 32 3 0
BITMAP
F80000
3C0000
3E0000
0F0000
0F8000
07C000
01E000
01F000
00F800
007C00
003E00
000F00
000F80
0007C0
0001E0
0001F0
0001F0
0001E0
0007C0
000F80
000F00
003E00
003C00
00F800
01F000
01E000
07C000
0F8000
1F0000
3E0000
3C0000
F80000
ENDCHAR
STARTCHAR QUESTION
ENCODING 63
SWIDTH 500 0
DWIDTH 26 0
BBX 20 32 3 0
BITMAP
0FFF80
3FFFC0
3FFFC0
F801F0
F801F0
F000F0
0000F0
0000F0
0000F0
0001E0
0001C0
000780
000700
000E00
003C00
003800
003800
003800
00F000
00F000
00F000
00F000
000000
000000
000000
000000
000000
006000
00F000
00F000
00F000
00F000
ENDCHAR
STARTCHAR COMMERCIAL
ENCODING 64
SWIDTH 500 0
DWIDTH 26 0
BBX 20 29 3 0
BITMAP
0FFF80
1FFF80
3FFFC0
F801F0
F801F0
E000F0
F000F0
E000F0
E0F8F0
E0F8F0
F0F8F0
E0F8F0
E0F8F0
F0F8F0
E0F870
F0F8F0
E0F870
F0F8F0
F0FFF0
E0FFF0
F0FFF0
F00000
E00000
F00000
F80000
F80000
3FFFC0
3FFFC0
1FFFC0
ENDCHAR
STARTCHAR LATIN
ENCODING 65
SWIDTH 500 0
DWIDTH 26 0
BBX 20 32 3 0
BITMAP
0FFF80
3FFFC0
3FFFC0
F801F0
F801F0
F000F0
E000F0
E000F0
E000F0
F000F0
E000F0
E000F0
E000F0
F000F0
FFFFF0
FFFFF0
FFFFF0
FFFFF0
F000F0
E00070
F000F0
F000F0
E00070
F000F0
F000F0
E00070
F000F0
E00070
F000F0
F000F0
E00070
F000F0
ENDCHAR
STARTCHAR LATIN
ENCODING 66
SWIDTH 500 0
DWIDTH 26 0
BBX 20 32 3 0
BITMAP
FFFF80
FFFFC0
FFFFC0
E001F0
E001F0
F000F0
E000F0
E000F0
E000F0
F000F0
E000F0
E001C0
F001C0
FFFF80
FFFF80
FFFF80
F001C0
E001C0
F000F0
E00070
F000F0
F000F0
E00070
F000F0
F000F0
E00070
F000F0
E001F0
F001F0
FFFFC0
FFFFC0
FFFF80
ENDCHAR
STARTCHAR LATIN
ENCODING 67
SWIDTH 500 0
DWIDTH 26 0
BBX 20 32 3 0
BITMAP
0FFFF0
3FFFF0
3FFFF0
F80000
F80000
F00000
E00000
E00000
E00000
F00000
E00000
E00000
E00000
F00000
E00000
E00000
F00000
E00000
F00000
E00000
F00000
F00000
E00000
F00000
F00000
E00000
F00000
F80000
F80000
3FFFF0
3FFFF0
1FFFF0
ENDCHAR
STARTCHAR LATIN
ENCODING 68
SWIDTH 500 0
DWIDTH 26 0
BBX 20 32 3 0
BITMAP
FFFF80
FFFFC0
FFFFC0
E001F0
E001F0
F000F0
E000F0
E000F0
E000F0
F000F0
E000F0
E000F0
E000F0
F000F0
E000F0
E000F0
F000F0
E00070
F000F0
E00070
F000F0
F000F0
E00070
F000F0
F000F0
E00070
F000F0
E001F0
F001F0
FFFFC0
FFFFC0
FFFF80
ENDCHAR
STARTCHAR LATIN
ENCODING 69
SWIDTH 500 0
DWIDTH 26 0
BBX 20 32 3 0
BITMAP
0FFFF0
3FFFF0
3FFFF0
F80000
F80000
F00000
E00000
E00000
E00000
F00000
E00000
E00000
E00000
F00000
FFFE00
FFFE00
FFFE00
FFFE00
F00000
E00000
F00000
F00000
E00000
F00000
F00000
E00000
F00000
F80000
F80000
3FFFF0
3FFFF0
1FFFF0
ENDCHAR
STARTCHAR LATIN
ENCODING 70
SWIDTH 500 0
DWIDTH 26 0
BBX 20 32 3 0
BITMAP
0FFFF0
3FFFF0
3FFFF0
F80000
F80000
F00000
E00000
E00000
E00000
F00000
E00000
E00000
E00000
F00000
FFFE00
FFFE00
FFFE00
FFFE00
F00000
E00000
F00000
F00000
E00000
F00000
F00000
E00000
F00000
E00000
F00000
F00000
E00000
F00000
ENDCHAR
STARTCHAR LATIN
ENCODING 71
SWIDTH 500 0
DWIDTH 26 0
BBX 20 32 3 0
BITMAP
0FFFF0
3FFFF0
3FFFF0
F80000
F80000
F00000
E00000
E00000
E00000
F00000
E00000
E00000
E00000
F00000
E03FE0
E03FF0
F03FF0
E03FF0
F000F0
E00070
F000F0
F000F0
E00070
F000F0
F000F0
E00070
F000F0
F80070
F800F0
3FFFF0
3FFFF0
1FFFF0
ENDCHAR
STARTCHAR LATIN
ENCODING 72
SWIDTH 500 0
DWIDTH 26 0
BBX 20 32 3 0
BITMAP
E000F0
F000F0
E000F0
E000F0
E000F0
F000F0
E000F0
E000F0
E000F0
F000F0
E000F0
E000F0
E000F0
F000F0
FFFFF0
FFFFF0
FFFFF0
FFFFF0
F000F0
E00070
F000F0
F000F0
E00070
F000F0
F000F0
E00070
F000F0
E00070
F000F0
F000F0
E00070
F000F0
ENDCHAR
STARTCHAR LATIN
ENCODING 73
SWIDTH 500 0
DWIDTH 26 0
BBX 16 32 5 0
BITMAP
FFFF
FFFF
FFFF
03C0
03C0
03C0
03C0
03C0
03C0
03C0
03C0
03C0
03C0
03C0
03C0
03C0
03C0
03C0
03C0
03C0
03C0
03C0
03C0
03C0
03C0
03C0
03C0
03C0
03C0
FFFF
FFFF
FFFF
ENDCHAR
STARTCHAR LATIN
ENCODING 74
SWIDTH 500 0
DWIDTH 26 0
BBX 19 32 2 0
BITMAP
1FFFE0
1FFFE0
1FFFE0
007800
007800
007800
007800
007800
007800
007800
007800
007800
007800
007800
007800
007800
007800
007800
007800
007800
007800
007800
007800
007800
007800
007800
007800
00F800
00F800
FFE000
FFE000
FF8000
ENDCHAR
STARTCHAR LATIN
ENCODING 75
SWIDTH 500 0
DWIDTH 26 0
BBX 20 32 3 0
BITMAP
E000F0
F000F0
E000F0
E000F0
E000F0
F000F0
E000F0
E000F0
E000F0
F001E0
E001C0
E00780
E00700
F00E00
FFFC00
FFF800
FFF800
FFFC00
F00E00
E00700
F00780
F001C0
E000E0
F000F0
F000F0
E00070
F000F0
E00070
F000F0
F000F0
E00070
F000F0
ENDCHAR
STARTCHAR LATIN
ENCODING 76
SWIDTH 500 0
DWIDTH 26 0
BBX 20 32 3 0
BITMAP
E00000
F00000
E00000
E00000
E00000
F00000
E00000
E00000
E00000
F00000
E00000
E00000
E00000
F00000
E00000
E00000
F00000
E00000
F00000
E00000
F00000
F00000
E00000
F00000
F00000
E00000
F00000
F80000
F80000
3FFFF0
3FFFF0
1FFFF0
ENDCHAR
STARTCHAR LATIN
ENCODING 77
SWIDTH 500 0
DWIDTH 26 0
BBX 20 32 3 0
BITMAP
E000F0
F801F0
F801F0
FE07F0
FE07F0
FF0FF0
F7FEF0
E7FEF0
E1F8F0
F1F8F0
E0F0F0
E000F0
E000F0
F000F0
E000F0
E000F0
F000F0
E00070
F000F0
E00070
F000F0
F000F0
E00070
F000F0
F000F0
E00070
F000F0
E00070
F000F0
F000F0
E00070
F000F0
ENDCHAR
STARTCHAR LATIN
ENCODING 78
SWIDTH 500 0
DWIDTH 26 0
BBX 20 32 3 0
BITMAP
E000F0
F000F0
E000F0
F800F0
F800F0
F800F0
FE00F0
FE00F0
FE00F0
FF00F0
E700F0
E700F0
E780F0
F1C0F0
E1C0F0
E1C0F0
F0F0F0
E0F070
F0F0F0
E03870
F038F0
F038F0
E01C70
F00EF0
F00EF0
E00EF0
F007F0
E007F0
F007F0
F001F0
E001F0
F001F0
ENDCHAR
STARTCHAR LATIN
ENCODING 79
SWIDTH 500 0
DWIDTH 26 0
BBX 20 32 3 0
BITMAP
0FFF80
3FFFC0
3FFFC0
F801F0
F801F0
F000F0
E000F0
E000F0
E000F0
F000F0
E000F0
E000F0
E000F0
F000F0
E000F0
E000F0
F000F0
E00070
F000F0
E00070
F000F0
F000F0
E00070
F000F0
F000F0
E00070
F000F0
F801F0
F801F0
3FFFC0
3FFFC0
1FFF80
ENDCHAR
STARTCHAR LATIN
ENCODING 80
SWIDTH 500 0
DWIDTH 26 0
BBX 20 32 3 0
BITMAP
FFFF80
FFFFC0
FFFFC0
E001F0
E001F0
F000F0
E000F0
E000F0
E000F0
F000F0
E000F0
E000F0
E000F0
F001F0
FFFFC0
FFFFC0
FFFF80
FFFF00
F00000
E00000
F00000
F00000
E00000
F00000
F00000
E00000
F00000
E00000
F00000
F00000
E00000
F00000
ENDCHAR
STARTCHAR LATIN
ENCODING 81
SWIDTH 500 0
DWIDTH 26 0
BBX 20 39 3 -7
BITMAP
0FFF80
3FFFC0
3FFFC0
F801F0
F801F0
F000F0
E000F0
E000F0
E000F0
F000F0
E000F0
E000F0
E000F0
F000F0
E000F0
E000F0
F000F0
E00070
F000F0
E00070
F000F0
F000F0
E00070
F0F0F0
F0F0F0
E07070
F038F0
F839F0
F839F0
3FFFC0
3FFFC0
1FFF80
000700
000780
000780
000380
0001C0
0001C0
0001C0
ENDCHAR
STARTCHAR LATIN
ENCODING 82
SWIDTH 500 0
DWIDTH 26 0
BBX 20 32 3 0
BITMAP
FFFF80
FFFFC0
FFFFC0
E001F0
E001F0
F000F0
E000F0
E000F0
E000F0
F000F0
E000F0
E000F0
E000F0
F001C0
FFFF80
FFFF80
FFFF80
FFFF80
F001C0
E000F0
F000F0
F000F0
E00070
F000F0
F000F0
E00070
F000F0
E00070
F000F0
F000F0
E00070
F000F0
ENDCHAR
STARTCHAR LATIN
ENCODING 83
SWIDTH 500 0
DWIDTH 26 0
BBX 20 32 3 0
BITMAP
0FFFF0
3FFFF0
3FFFF0
F80000
F80000
F00000
E00000
E00000
E00000
F00000
E00000
E00000
F00000
F80000
3FFF00
3FFF80
1FFFC0
0FFFC0
0001F0
0000F0
0000F0
0000F0
000070
0000F0
0000F0
000070
0000F0
0001F0
0001F0
FFFFC0
FFFFC0
FFFF80
ENDCHAR
STARTCHAR LATIN
ENCODING 84
SWIDTH 500 0
DWIDTH 26 0
BBX 22 32 2 0
BITMAP
FFFFFC
FFFFFC
FFFFFC
007800
007800
007800
007800
007800
007800
007800
007800
007800
007800
007800
007800
007800
007800
007800
007800
007800
007800
007800
007800
007800
007800
007800
007800
007800
007800
007800
007800
007800
ENDCHAR
STARTCHAR LATIN
ENCODING 85
SWIDTH 500 0
DWIDTH 26 0
BBX 20 32 3 0
BITMAP
E000F0
F000F0
E000F0
E000F0
E000F0
F000F0
E000F0
E000F0
E000F0
F000F0
E000F0
E000F0
E000F0
F000F0
E000F0
E000F0
F000F0
E00070
F000F0
E00070
F000F0
F000F0
E00070
F000F0
F000F0
E00070
F000F0
F80070
F800F0
3FFFF0
3FFFF0
1FFFF0
ENDCHAR
STARTCHAR LATIN
ENCODING 86
SWIDTH 500 0
DWIDTH 26 0
BBX 20 32 3 0
BITMAP
E000F0
F000F0
E000F0
E000F0
E000F0
F000F0
E000F0
E000F0
E000F0
F000F0
E000F0
E000F0
E000F0
F000F0
E000F0
E000F0
F000F0
E00070
F000F0
E00070
F000F0
F000F0
F000F0
F801F0
3E07C0
3E07C0
1F0F80
07FE00
07FE00
01F800
01F800
00F000
ENDCHAR
STARTCHAR LATIN
ENCODING 87
SWIDTH 500 0
DWIDTH 26 0
BBX 20 32 3 0
BITMAP
E000F0
F000F0
E000F0
E000F0
E000F0
F000F0
E000F0
E000F0
E000F0
F000F0
E000F0
E000F0
E000F0
F000F0
E000F0
E000F0
F000F0
E00070
F000F0
E00070
F000F0
F0F0F0
E0F070
F1F8F0
F7FEF0
F7FEF0
FF0FF0
FE07F0
FE07F0
F801F0
F801F0
F000F0
ENDCHAR
STARTCHAR LATIN
ENCODING 88
SWIDTH 500 0
DWIDTH 26 0
BBX 20 32 3 0
BITMAP
E000F0
F000F0
E000F0
E000F0
E000F0
F000F0
E000F0
E000F0
E000F0
F000F0
E000F0
3801C0
3801C0
1E0780
07FE00
07FE00
07FE00
07FE00
1E0780
3801C0
3801C0
F000F0
E00070
F000F0
F000F0
E00070
F000F0
E00070
F000F0
F000F0
E00070
F000F0
ENDCHAR
STARTCHAR LATIN
ENCODING 89
SWIDTH 500 0
DWIDTH 26 0
BBX 20 32 3 0
BITMAP
E000F0
F000F0
E000F0
E000F0
E000F0
F000F0
E000F0
E000F0
E000F0
F000F0
E000F0
E000F0
F000F0
F800F0
3FFFF0
3FFFF0
1FFFF0
0FFFF0
0000F0
000070
0000F0
0000F0
000070
0000F0
0000F0
000070
0000F0
0001F0
0001F0
FFFFC0
FFFFC0
FFFF80
ENDCHAR
STARTCHAR LATIN
ENCODING 90
SWIDTH 500 0
DWIDTH 26 0
BBX 20 32 3 0
BITMAP
FFFFF0
FFFFF0
FFFFF0
0000F0
0000F0
0000F0
0000F0
0000F0
0000F0
0001E0
0001C0
000780
000700
000E00
003C00
003800
00F000
00E000
01C000
078000
070000
1E0000
1C0000
380000
F00000
E00000
F00000
E00000
F00000
FFFFF0
FFFFF0
FFFFF0
ENDCHAR
STARTCHAR LEFT
ENCODING 91
SWIDTH 500 0
DWIDTH 26 0
BBX 17 46 6 -7
BITMAP
7FFF80
7FFF80
7FFF80
744400
F00000
700000
F00000
700000
F00000
700000
700000
700000
F00000
700000
700000
700000
F00000
700000
700000
700000
F00000
700000
700000
F00000
700000
F00000
700000
F00000
F00000
700000
F00000
F00000
700000
F00000
700000
F00000
F00000
700000
F00000
700000
F00000
F00000
700000
FFFF80
FFFF80
7FFF80
ENDCHAR
STARTCHAR REVERSE
ENCODING 92
SWIDTH 500 0
DWIDTH 26 0
BBX 22 42 2 -5
BITMAP
E00000
E00000
E00000
700000
780000
700000
1C0000
1C0000
1C0000
1C0000
0F0000
070000
070000
038000
038000
038000
00E000
00E000
00E000
007000
007800
007800
003800
001C00
001C00
001C00
000700
000700
000700
000380
000380
0003C0
0000E0
0000E0
0000E0
0000E0
000078
000038
000038
00001C
00001C
00001C
ENDCHAR
STARTCHAR RIGHT
ENCODING 93
SWIDTH 500 0
DWIDTH 26 0
BBX 17 46 3 -7
BITMAP
FFFF00
FFFF80
FFFF80
0A8F80
000780
000780
000780
000780
000780
000780
000780
000780
000780
000780
000780
000780
000780
000780
000780
000780
000780
000780
000780
000780
000700
000780
000700
000780
000780
000700
000780
000780
000700
000780
000700
000780
000780
000700
000780
000700
000780
000780
000700
FFFF80
FFFF80
FFFF00
ENDCHAR
STARTCHAR CIRCUMFLEX
ENCODING 94
SWIDTH 500 0
DWIDTH 26 0
BBX 22 13 2 22
BITMAP
007800
00FC00
00FC00
03FF00
07CF80
0787C0
1F03E0
1E01E0
7C00F8
F8007C
F0003C
E0001C
C0000C
ENDCHAR
STARTCHAR LOW
ENCODING 95
SWIDTH 500 0
DWIDTH 26 0
BBX 22 3 2 -7
BITMAP
FFFFFC
FFFFFC
FFFFFC
ENDCHAR
STARTCHAR GRAVE
ENCODING 96
SWIDTH 500 0
DWIDTH 26 0
BBX 10 10 8 26
BITMAP
4000
E000
F800
F800
3E00
1F00
1F00
07C0
07C0
01C0
ENDCHAR
STARTCHAR LATIN
ENCODING 97
SWIDTH 500 0
DWIDTH 26 0
BBX 20 23 3 0
BITMAP
3FFF00
3FFF80
3FFFC0
3FFFC0
0001F0
0000F0
0000F0
0000F0
0000F0
1FFFF0
3FFFF0
3FFFF0
F800F0
F00070
F000F0
F000F0
E00070
F000F0
F80070
F800F0
3FFFF0
3FFFF0
1FFFF0
ENDCHAR
STARTCHAR LATIN
ENCODING 98
SWIDTH 500 0
DWIDTH 26 0
BBX 20 32 3 0
BITMAP
E00000
F00000
E00000
E00000
E00000
F00000
E00000
E00000
E00000
FFFF00
FFFF80
FFFFC0
FFFFC0
F001F0
E000F0
E000F0
F000F0
E00070
F000F0
E00070
F000F0
F000F0
E00070
F000F0
F000F0
E00070
F000F0
E001F0
F001F0
FFFFC0
FFFFC0
FFFF80
ENDCHAR
STARTCHAR LATIN
ENCODING 99
SWIDTH 500 0
DWIDTH 26 0
BBX 20 23 3 0
BITMAP
0FFFE0
0FFFF0
3FFFF0
3FFFF0
F80000
F00000
E00000
F00000
E00000
F00000
E00000
F00000
F00000
E00000
F00000
F00000
E00000
F00000
F80000
F80000
3FFFF0
3FFFF0
1FFFF0
ENDCHAR
STARTCHAR LATIN
ENCODING 100
SWIDTH 500 0
DWIDTH 26 0
BBX 20 32 3 0
BITMAP
0000F0
0000F0
0000F0
0000F0
0000F0
0000F0
0000F0
0000F0
0000F0
0FFFF0
0FFFF0
3FFFF0
3FFFF0
F800F0
F000F0
E000F0
F000F0
E00070
F000F0
E00070
F000F0
F000F0
E00070
F000F0
F000F0
E00070
F000F0
F80070
F800F0
3FFFF0
3FFFF0
1FFFF0
ENDCHAR
STARTCHAR LATIN
ENCODING 101
SWIDTH 500 0
DWIDTH 26 0
BBX 20 23 3 0
BITMAP
0FFFE0
0FFFF0
3FFFF0
3FFFF0
F800F0
F000F0
E000F0
F000F0
E00070
F000F0
FFFFF0
FFFFF0
FFFFF0
F00000
F00000
F00000
E00000
F00000
F80000
F80000
3FFFF0
3FFFF0
1FFFF0
ENDCHAR
STARTCHAR LATIN
ENCODING 102
SWIDTH 500 0
DWIDTH 26 0
BBX 16 32 5 0
BITMAP
03FF
07FF
07FF
1F00
1F00
1C00
1C00
1C00
1C00
1C00
1C00
1C00
1E00
FFF8
FFF8
FFF8
1C00
1C00
1C00
1C00
1C00
1C00
1C00
1C00
1C00
1C00
1C00
1C00
1C00
1C00
1C00
1C00
ENDCHAR
STARTCHAR LATIN
ENCODING 103
SWIDTH 500 0
DWIDTH 26 0
BBX 20 33 3 -10
BITMAP
0FFFE0
0FFFF0
3FFFF0
3FFFF0
F800F0
F000F0
E000F0
F000F0
E00070
F000F0
E00070
F000F0
F000F0
E00070
F000F0
F000F0
E00070
F000F0
F801C0
F801C0
3FFF80
3FFF00
1FFF80
0001C0
0001C0
0000F0
000070
0000F0
0001F0
0001F0
FFFFC0
FFFF80
FFFF80
ENDCHAR
STARTCHAR LATIN
ENCODING 104
SWIDTH 500 0
DWIDTH 26 0
BBX 20 32 3 0
BITMAP
E00000
F00000
E00000
E00000
E00000
F00000
E00000
E00000
E00000
FFFF00
FFFF80
FFFFC0
FFFFC0
F001F0
E000F0
E000F0
F000F0
E00070
F000F0
E00070
F000F0
F000F0
E00070
F000F0
F000F0
E00070
F000F0
E00070
F000F0
F000F0
E00070
F000F0
ENDCHAR
STARTCHAR LATIN
ENCODING 105
SWIDTH 500 0
DWIDTH 26 0
BBX 4 32 11 0
BITMAP
F0
F0
F0
F0
60
00
00
00
00
60
F0
F0
F0
F0
F0
F0
F0
F0
F0
F0
F0
F0
F0
F0
F0
F0
F0
F0
F0
F0
F0
F0
ENDCHAR
STARTCHAR LATIN
ENCODING 106
SWIDTH 500 0
DWIDTH 26 0
BBX 10 42 5 -10
BITMAP
03C0
03C0
03C0
03C0
0180
0000
0000
0000
0000
0180
03C0
03C0
03C0
03C0
03C0
03C0
03C0
03C0
03C0
03C0
03C0
03C0
03C0
03C0
03C0
03C0
03C0
03C0
03C0
03C0
03C0
03C0
03C0
03C0
03C0
03C0
03C0
07C0
0780
FF00
FE00
FC00
ENDCHAR
STARTCHAR LATIN
ENCODING 107
SWIDTH 500 0
DWIDTH 26 0
BBX 18 32 3 0
BITMAP
E00000
F00000
E00000
E00000
E00000
F00000
E00000
E00000
E00000
F00C00
E00E00
E03E00
E03E00
F0F800
E1F000
E1F000
F7C000
F7C000
FF0000
FF0000
FF0000
F7C000
E3C000
F1F000
F0F800
E07800
F03E00
E01F00
F00F80
F007C0
E003C0
F001C0
ENDCHAR
STARTCHAR LATIN
ENCODING 108
SWIDTH 500 0
DWIDTH 26 0
BBX 13 32 8 0
BITMAP
E000
E000
E000
E000
E000
E000
E000
E000
E000
E000
E000
E000
E000
E000
E000
E000
E000
E000
E000
E000
E000
E000
E000
E000
E000
E000
E000
F800
F800
3FF8
3FF8
1FF8
ENDCHAR
STARTCHAR LATIN
ENCODING 109
SWIDTH 500 0
DWIDTH 26 0
BBX 20 23 3 0
BITMAP
7F0F00
FF0F80
FF0FC0
FF0FC0
F0F1F0
E0F0F0
E0F0F0
F0F0F0
E0F070
F0F0F0
E0F070
F0F0F0
F0F0F0
E0F070
F0F0F0
F0F0F0
E06070
F000F0
E00070
F000F0
F000F0
E00070
F000F0
ENDCHAR
STARTCHAR LATIN
ENCODING 110
SWIDTH 500 0
DWIDTH 26 0
BBX 20 23 3 0
BITMAP
7FFF00
FFFF80
FFFFC0
FFFFC0
F001F0
E000F0
E000F0
F000F0
E00070
F000F0
E00070
F000F0
F000F0
E00070
F000F0
F000F0
E00070
F000F0
E00070
F000F0
F000F0
E00070
F000F0
ENDCHAR
STARTCHAR LATIN
ENCODING 111
SWIDTH 500 0
DWIDTH 26 0
BBX 20 23 3 0
BITMAP
0FFF00
0FFF80
3FFFC0
3FFFC0
F801F0
F000F0
E000F0
F000F0
E00070
F000F0
E00070
F000F0
F000F0
E00070
F000F0
F000F0
E00070
F000F0
F801F0
F801F0
3FFFC0
3FFFC0
1FFF80
ENDCHAR
STARTCHAR LATIN
ENCODING 112
SWIDTH 500 0
DWIDTH 26 0
BBX 20 33 3 -10
BITMAP
7FFF00
FFFF80
FFFFC0
FFFFC0
F001F0
E000F0
E000F0
F000F0
E00070
F000F0
E00070
F000F0
F000F0
E00070
F000F0
F000F0
E00070
F000F0
E001F0
F001F0
FFFFC0
FFFFC0
FFFF80
F00000
F00000
F00000
E00000
F00000
F00000
E00000
F00000
E00000
F00000
ENDCHAR
STARTCHAR LATIN
ENCODING 113
SWIDTH 500 0
DWIDTH 26 0
BBX 20 33 3 -10
BITMAP
0FFFE0
0FFFF0
3FFFF0
3FFFF0
F800F0
F000F0
E000F0
F000F0
E00070
F000F0
E00070
F000F0
F000F0
E00070
F000F0
F000F0
E00070
F000F0
F80070
F800F0
3FFFF0
3FFFF0
1FFFF0
0000F0
0000F0
0000F0
000070
0000F0
0000F0
000070
0000F0
000070
0000F0
ENDCHAR
STARTCHAR LATIN
ENCODING 114
SWIDTH 500 0
DWIDTH 26 0
BBX 20 23 3 0
BITMAP
0FFFE0
0FFFF0
3FFFF0
3FFFF0
F800F0
F000F0
E000F0
F00000
E00000
F00000
E00000
F00000
F00000
E00000
F00000
F00000
E00000
F00000
E00000
F00000
F00000
E00000
F00000
ENDCHAR
STARTCHAR LATIN
ENCODING 115
SWIDTH 500 0
DWIDTH 26 0
BBX 20 23 3 0
BITMAP
0FFFE0
0FFFF0
3FFFF0
3FFFF0
F80000
F00000
E00000
F00000
F00000
F80000
3FFF00
3FFF80
1FFFC0
0003E0
0001F0
0000F0
000070
0000F0
0001F0
0001F0
FFFFC0
FFFFC0
FFFF80
ENDCHAR
STARTCHAR LATIN
ENCODING 116
SWIDTH 500 0
DWIDTH 26 0
BBX 16 32 5 0
BITMAP
1C00
1C00
1C00
1C00
1C00
1C00
1C00
1C00
1C00
FFF0
FFF8
FFF8
FFF8
1C00
1C00
1C00
1C00
1C00
1C00
1C00
1C00
1C00
1C00
1C00
1C00
1C00
1C00
1F00
1F00
07FF
07FF
03FF
ENDCHAR
STARTCHAR LATIN
ENCODING 117
SWIDTH 500 0
DWIDTH 26 0
BBX 20 23 3 0
BITMAP
600060
E000F0
E000F0
E000F0
F000F0
E000F0
E000F0
F000F0
E00070
F000F0
E00070
F000F0
F000F0
E00070
F000F0
F000F0
E00070
F000F0
F80070
F800F0
3FFFF0
3FFFF0
1FFFF0
ENDCHAR
STARTCHAR LATIN
ENCODING 118
SWIDTH 500 0
DWIDTH 26 0
BBX 20 23 3 0
BITMAP
600060
E000F0
E000F0
E000F0
F000F0
E000F0
E000F0
F000F0
E00070
F000F0
E00070
F000F0
F000F0
F000F0
F801F0
3E07C0
3E07C0
1F0F80
07FE00
07FE00
01F800
01F800
00F000
ENDCHAR
STARTCHAR LATIN
ENCODING 119
SWIDTH 500 0
DWIDTH 26 0
BBX 20 23 3 0
BITMAP
600060
E000F0
E000F0
E000F0
F000F0
E000F0
E000F0
F0F0F0
E0F070
F0F0F0
E0F070
F0F0F0
F0F0F0
E0F070
F0F0F0
F0F0F0
E0F070
F0F0F0
F8F070
F8F0F0
3F0FF0
3F0FF0
1F0FF0
ENDCHAR
STARTCHAR LATIN
ENCODING 120
SWIDTH 500 0
DWIDTH 26 0
BBX 20 23 3 0
BITMAP
600060
E000F0
F801F0
F801F0
3E07C0
1F0F80
0F0F80
07FE00
07FE00
01F800
01F800
01F800
07FE00
079E00
1F0F80
3E07C0
3E07C0
3801C0
7801E0
F801F0
F000F0
E00070
F000F0
ENDCHAR
STARTCHAR LATIN
ENCODING 121
SWIDTH 500 0
DWIDTH 26 0
BBX 20 33 3 -10
BITMAP
600060
E000F0
E000F0
E000F0
F000F0
E000F0
E000F0
F000F0
E00070
F000F0
E00070
F000F0
F000F0
E00070
F000F0
F000F0
E00070
F000F0
F80070
F800F0
3FFFF0
3FFFF0
1FFFF0
0000F0
0000F0
0000F0
000070
0000F0
0001F0
0001F0
FFFFC0
FFFF80
FFFF80
ENDCHAR
STARTCHAR LATIN
ENCODING 122
SWIDTH 500 0
DWIDTH 26 0
BBX 20 23 3 0
BITMAP
7FFFE0
FFFFF0
FFFFF0
FFFFF0
0000F0
0001C0
0001C0
000780
000700
000E00
003800
003800
00F000
00C000
01C000
070000
070000
1E0000
380000
380000
FFFFF0
FFFFF0
FFFFF0
ENDCHAR
STARTCHAR LEFT
ENCODING 123
SWIDTH 500 0
DWIDTH 26 0
BBX 20 46 3 -7
BITMAP
003FF0
003FF0
00FFF0
00F880
01F000
01C000
01C000
01C000
01C000
01C000
01C000
01C000
01C000
01C000
01C000
01C000
01C000
01C000
07C000
07C000
FF0000
FE0000
FE0000
FE0000
FE0000
FF0000
07C000
07C000
01C000
01C000
01C000
01C000
01C000
01C000
01C000
01C000
01C000
01C000
01C000
01C000
01C000
01F000
00F000
00FFF0
003FF0
003FF0
ENDCHAR
STARTCHAR VERTICAL
ENCODING 124
SWIDTH 500 0
DWIDTH 26 0
BBX 4 38 11 -3
BITMAP
F0
F0
F0
F0
F0
F0
F0
F0
F0
F0
F0
F0
F0
F0
F0
F0
F0
F0
F0
F0
F0
F0
F0
F0
F0
F0
F0
F0
F0
F0
F0
F0
F0
F0
F0
F0
F0
F0
ENDCHAR
STARTCHAR RIGHT
ENCODING 125
SWIDTH 500 0
DWIDTH 26 0
BBX 20 46 3 -7
BITMAP
FFC000
FFC000
FFF000
0AF800
00F800
003800
003800
003800
003800
003800
003800
003800
003800
003800
003800
003800
003800
003800
003E00
003E00
000FF0
0007F0
0007F0
0007F0
0007F0
000FF0
003E00
003E00
003800
003800
003800
003800
003800
003800
003800
003800
003800
003800
003800
003800
003800
00F800
00F000
FFF000
FFC000
FFC000
ENDCHAR
STARTCHAR TILDE
ENCODING 126
SWIDTH 500 0
DWIDTH 26 0
BBX 20 9 3 27
BITMAP
0A0000
1F00F0
3FC0F0
3FC0F0
F9F1F0
F0FFC0
E0FFC0
E03F80
603F00
ENDCHAR
STARTCHAR control
ENCODING 127
SWIDTH 500 0
DWIDTH 26 0
BBX 1 1 25 -10
BITMAP
00
ENDCHAR
STARTCHAR NO-BREAK
ENCODING 160
SWIDTH 500 0
DWIDTH 26 0
BBX 1 1 25 -10
BITMAP
00
ENDCHAR
STARTCHAR INVERTED
ENCODING 161
SWIDTH 500 0
DWIDTH 26 0
BBX 4 32 11 0
BITMAP
F0
F0
F0
00
00
00
00
00
00
60
F0
F0
F0
F0
F0
F0
F0
F0
F0
F0
F0
F0
F0
F0
F0
F0
F0
F0
F0
F0
F0
F0
ENDCHAR
STARTCHAR CENT
ENCODING 162
SWIDTH 500 0
DWIDTH 26 0
BBX 20 29 3 -3
BITMAP
003800
003800
003800
0FFFE0
0FFFF0
3FFFF0
3FFFF0
F83800
F03800
E03800
F03800
E03800
F03800
E03800
F03800
F03800
E03800
F03800
F03800
E03800
F03800
F83800
F83800
3FFFF0
3FFFF0
1FFFF0
003800
003800
003800
ENDCHAR
STARTCHAR POUND
ENCODING 163
SWIDTH 500 0
DWIDTH 26 0
BBX 20 32 3 0
BITMAP
01FE00
07FF00
07FF80
0F07C0
0F03C0
1E01C0
0E0000
0E0000
0E0000
1E0000
0E0000
0E0000
0E0000
1E0000
7FFF00
FFFF80
FFFF80
7FFF00
1E0000
0E0000
1E0000
1E0000
0E0000
1E0000
1E0000
1E0000
380000
380000
380000
FFFFF0
FFFFF0
FFFFF0
ENDCHAR
STARTCHAR CURRENCY
ENCODING 164
SWIDTH 500 0
DWIDTH 26 0
BBX 16 22 5 5
BITMAP
F81F
7C3E
3C3C
1FF8
3FFC
3FFE
F81F
F81F
E007
E007
E007
E007
E007
E007
F81F
F81F
7FFE
1FF8
1FF8
3C3C
7C3E
F81F
ENDCHAR
STARTCHAR YEN
ENCODING 165
SWIDTH 500 0
DWIDTH 26 0
BBX 20 32 3 0
BITMAP
E000F0
F000F0
E000F0
3801C0
3801C0
3801C0
1E0780
0E0780
0E0780
0F0F00
070E00
070E00
079E00
01F800
01F800
01F800
00F000
00F000
00F000
3FFFC0
3FFFC0
3FFFC0
00F000
00F000
00F000
00F000
3FFFC0
3FFFC0
3FFFC0
00F000
00F000
00F000
ENDCHAR
STARTCHAR BROKEN
ENCODING 166
SWIDTH 500 0
DWIDTH 26 0
BBX 4 38 11 -3
BITMAP
F0
F0
F0
F0
F0
F0
F0
F0
F0
F0
F0
F0
F0
F0
F0
60
00
00
00
00
00
00
60
F0
F0
F0
F0
F0
F0
F0
F0
F0
F0
F0
F0
F0
F0
F0
ENDCHAR
STARTCHAR SECTION
ENCODING 167
SWIDTH 500 0
DWIDTH 26 0
BBX 16 39 5 -3
BITMAP
0A20
1FF8
3FFC
7FFE
F83E
E000
E000
E000
E000
F800
7C00
3C00
1FF8
3FFC
3FFE
F81F
F81F
E007
E007
E007
E007
E007
E007
F81F
F81F
7FFE
1FF8
1FF8
003C
003E
001F
0007
0007
0007
0007
7C1F
3FFE
3FFC
1FF8
ENDCHAR
STARTCHAR DIAERESIS
ENCODING 168
SWIDTH 500 0
DWIDTH 26 0
BBX 14 5 6 26
BITMAP
6018
703C
703C
703C
F03C
ENDCHAR
STARTCHAR COPYRIGHT
ENCODING 169
SWIDTH 500 0
DWIDTH 26 0
BBX 20 26 3 0
BITMAP
0FFF00
1FFF80
3FFFC0
7FFFE0
F801F0
F000F0
E000F0
F1FEF0
E7FEF0
E7FEF0
F700F0
E70070
F700F0
E70070
F700F0
F700F0
E78070
F7FEF0
F1FEF0
E1FE70
F000F0
F801F0
F801F0
3FFFC0
3FFFC0
1FFF80
ENDCHAR
STARTCHAR FEMININE
ENCODING 170
SWIDTH 500 0
DWIDTH 26 0
BBX 14 23 6 13
BITMAP
1440
3FC0
3FF0
3FF0
007C
003C
003C
3FFC
3FFC
FFFC
703C
703C
703C
FFFC
7FFC
3FFC
3FF8
0000
0000
0000
FFFC
7FF8
FFFC
ENDCHAR
STARTCHAR LEFT-POINTING
ENCODING 171
SWIDTH 500 0
DWIDTH 26 0
BBX 20 16 3 3
BITMAP
01F1F0
07C3C0
07C7C0
1F0F80
1F1F00
3E3E00
F87800
F8F800
F8F800
7C3C00
3E3E00
1F0F00
0F8F80
07C7C0
03E1E0
01F1F0
ENDCHAR
STARTCHAR NOT
ENCODING 172
SWIDTH 500 0
DWIDTH 26 0
BBX 20 13 3 10
BITMAP
7FFFE0
FFFFF0
FFFFF0
FFFFF0
0000F0
0000F0
0000F0
0000F0
000070
0000F0
000070
0000F0
0000F0
ENDCHAR
STARTCHAR SOFT
ENCODING 173
SWIDTH 500 0
DWIDTH 26 0
BBX 16 3 5 13
BITMAP
FFFF
FFFF
FFFF
ENDCHAR
STARTCHAR REGISTERED
ENCODING 174
SWIDTH 500 0
DWIDTH 26 0
BBX 20 26 3 3
BITMAP
0FFF80
1FFF80
3FFFC0
F801F0
F801F0
E000F0
F3F8F0
E7F8F0
E7FEF0
E7FEF0
F70EF0
E7FEF0
E7FEF0
F7F8F0
E7FC70
F70EF0
E70E70
F70EF0
F70EF0
E00070
F000F0
F801F0
F801F0
3FFFC0
1FFF80
1FFF80
ENDCHAR
STARTCHAR MACRON
ENCODING 175
SWIDTH 500 0
DWIDTH 26 0
BBX 13 4 7 35
BITMAP
FFF0
FFF8
FFF8
A880
ENDCHAR
STARTCHAR DEGREE
ENCODING 176
SWIDTH 500 0
DWIDTH 26 0
BBX 14 15 6 19
BITMAP
0FC0
0FC0
3FF0
7CF8
787C
703C
703C
F03C
703C
703C
787C
7FF8
3FF0
0FC0
0FC0
ENDCHAR
STARTCHAR PLUS-MINUS
ENCODING 177
SWIDTH 500 0
DWIDTH 26 0
BBX 16 23 5 3
BITMAP
0180
03C0
03C0
03C0
03C0
03C0
03C0
FFFF
FFFF
FFFF
03C0
03C0
03C0
03C0
03C0
03C0
0000
0000
0000
0000
FFFF
FFFF
FFFF
ENDCHAR
STARTCHAR SUPERSCRIPT
ENCODING 178
SWIDTH 500 0
DWIDTH 26 0
BBX 14 20 6 14
BITMAP
0FC0
0FC0
3FF0
7038
703C
003C
003C
003C
0070
0070
01C0
03C0
0780
0E00
0E00
383C
7FFC
7FFC
FFFC
7FF8
ENDCHAR
STARTCHAR SUPERSCRIPT
ENCODING 179
SWIDTH 500 0
DWIDTH 26 0
BBX 14 20 6 14
BITMAP
0FC0
0FC0
3FF0
7038
703C
003C
003C
003C
03F0
07F0
07F0
03F8
003C
003C
003C
F03C
3FF0
3FF0
0FC0
0FC0
ENDCHAR
STARTCHAR ACUTE
ENCODING 180
SWIDTH 500 0
DWIDTH 26 0
BBX 10 9 10 26
BITMAP
03C0
07C0
0F80
1F00
3E00
7C00
F800
F000
E000
ENDCHAR
STARTCHAR MICRO
ENCODING 181
SWIDTH 500 0
DWIDTH 26 0
BBX 21 33 3 -10
BITMAP
600300
E00780
E00780
E00780
F00780
E00780
E00780
F00780
E00700
F00780
E00700
F00780
F00780
E00700
F00780
F00780
E00700
F00780
F80FC0
F80FC0
FFFFF8
FFFFF8
F7F8F8
E00000
F00000
F00000
E00000
F00000
F00000
E00000
F00000
E00000
F00000
ENDCHAR
STARTCHAR PILCROW
ENCODING 182
SWIDTH 500 0
DWIDTH 26 0
BBX 20 32 3 0
BITMAP
0FFFF0
3FFFF0
3FFFF0
F8F0F0
F8F0F0
F0F0F0
E0F0F0
E0F0F0
E0F0F0
F0F0F0
E0F0F0
F8F0F0
F8F0F0
3FF0F0
1FF0F0
0FF0F0
00F0F0
00F070
00F0F0
00F070
00F0F0
00F0F0
00F070
00F0F0
00F0F0
00F070
00F0F0
00F070
00F0F0
00F0F0
00F070
00F0F0
ENDCHAR
STARTCHAR MIDDLE
ENCODING 183
SWIDTH 500 0
DWIDTH 26 0
BBX 4 5 11 14
BITMAP
F0
F0
F0
F0
60
ENDCHAR
STARTCHAR CEDILLA
ENCODING 184
SWIDTH 500 0
DWIDTH 26 0
BBX 7 10 8 -10
BITMAP
0C
1E
1E
1E
1E
3E
3C
F8
F0
E0
ENDCHAR
STARTCHAR SUPERSCRIPT
ENCODING 185
SWIDTH 500 0
DWIDTH 26 0
BBX 10 20 8 14
BITMAP
1E00
1E00
3E00
FE00
FE00
DE00
9E00
1E00
1E00
1E00
1E00
1E00
1E00
1E00
1E00
1E00
FFC0
FFC0
FFC0
FFC0
ENDCHAR
STARTCHAR MASCULINE
ENCODING 186
SWIDTH 500 0
DWIDTH 26 0
BBX 14 21 6 13
BITMAP
0FC0
0FC0
3FF0
7CF8
787C
703C
703C
F03C
703C
703C
787C
7FF8
3FF0
0FC0
0FC0
0000
0000
0000
FFFC
7FF8
FFFC
ENDCHAR
STARTCHAR RIGHT-POINTING
ENCODING 187
SWIDTH 500 0
DWIDTH 26 0
BBX 20 16 3 3
BITMAP
F8F800
3C3E00
3E3E00
1F0F80
0F8F80
07C7C0
01E1F0
01F1F0
01F1F0
03C3E0
07C7C0
0F0F80
1F1F00
3E3E00
787C00
F8F800
ENDCHAR
STARTCHAR VULGAR
ENCODING 188
SWIDTH 500 0
DWIDTH 26 0
BBX 22 46 2 -7
BITMAP
1C0000
1C0000
7C0000
7C0000
FC0000
9C0000
9C0000
1C0000
1C0000
1C0000
1C0000
1C0000
1C001C
1C003C
1C007C
1C00F8
FF81F0
FF83E0
FF87C0
FF8F80
001F00
003E00
007C00
00F800
01F000
03E000
07C000
0F8000
1F7800
3E7800
7C7800
F878E0
F078E0
E078E0
0078E0
0078E0
0078E0
0078E0
007FFC
007FFC
007FFC
0000E0
0000E0
0000E0
0000E0
0000E0
ENDCHAR
STARTCHAR VULGAR
ENCODING 189
SWIDTH 500 0
DWIDTH 26 0
BBX 22 46 2 -7
BITMAP
1C0000
1C0000
7C0000
7C0000
FC0000
9C0000
9C0000
1C0000
1C0000
1C0000
1C0000
1C0000
1C001C
1C003C
1C007C
1C00F8
FF81F0
FF83E0
FF87C0
FF8F80
001F00
003E00
007C00
00F800
01F000
03E000
07C7E0
0F87E0
1F1FF8
3E1818
7C781C
F8001C
F0001C
E0001C
000038
000078
0000E0
0000E0
0003C0
000700
000700
001C1C
001E1C
007FFC
007FFC
003FFC
ENDCHAR
STARTCHAR VULGAR
ENCODING 190
SWIDTH 500 0
DWIDTH 26 0
BBX 22 46 2 -7
BITMAP
1F8000
1F8000
7FE000
656000
E07800
007800
007800
007800
07E000
07E000
07E000
07E000
00781C
00783C
00787C
E078F8
FFF1F0
7FE3E0
1F87C0
1F8F80
001F00
003E00
007C00
00F800
01F000
03E000
07C000
0F8000
1F7800
3E7800
7C7800
F878E0
F078E0
E078E0
0078E0
0078E0
0078E0
0078E0
007FFC
007FFC
007FFC
0000E0
0000E0
0000E0
0000E0
0000E0
ENDCHAR
STARTCHAR INVERTED
ENCODING 191
SWIDTH 500 0
DWIDTH 26 0
BBX 20 32 3 0
BITMAP
00F000
00F000
00F000
00F000
006000
000000
000000
000000
000000
006000
00F000
00F000
00F000
00F000
01C000
01C000
01C000
03C000
070000
0E0000
1E0000
380000
700000
F00000
F00000
E00000
F000F0
F801F0
F801F0
3FFFC0
3FFFC0
1FFF80
ENDCHAR
STARTCHAR LATIN
ENCODING 192
SWIDTH 500 0
DWIDTH 26 0
BBX 20 40 3 0
BITMAP
07C000
01E000
01F000
00F800
003C00
003E00
000000
000000
0FFF80
3FFFC0
3FFFC0
F801F0
F801F0
F000F0
E000F0
E000F0
E000F0
F000F0
E000F0
E000F0
E000F0
F000F0
FFFFF0
FFFFF0
FFFFF0
FFFFF0
F000F0
E00070
F000F0
F000F0
E00070
F000F0
F000F0
E00070
F000F0
E00070
F000F0
F000F0
E00070
F000F0
ENDCHAR
STARTCHAR LATIN
ENCODING 193
SWIDTH 500 0
DWIDTH 26 0
BBX 20 40 3 0
BITMAP
003E00
007800
00F800
01F000
03C000
07C000
000000
000000
0FFF80
3FFFC0
3FFFC0
F801F0
F801F0
F000F0
E000F0
E000F0
E000F0
F000F0
E000F0
E000F0
E000F0
F000F0
FFFFF0
FFFFF0
FFFFF0
FFFFF0
F000F0
E00070
F000F0
F000F0
E00070
F000F0
F000F0
E00070
F000F0
E00070
F000F0
F000F0
E00070
F000F0
ENDCHAR
STARTCHAR LATIN
ENCODING 194
SWIDTH 500 0
DWIDTH 26 0
BBX 20 42 3 0
BITMAP
00F000
00F000
01F800
07FE00
07FE00
0F0F80
0A0800
000000
000000
000000
0FFF80
3FFFC0
3FFFC0
F801F0
F801F0
F000F0
E000F0
E000F0
E000F0
F000F0
E000F0
E000F0
E000F0
F000F0
FFFFF0
FFFFF0
FFFFF0
FFFFF0
F000F0
E00070
F000F0
F000F0
E00070
F000F0
F000F0
E00070
F000F0
E00070
F000F0
F000F0
E00070
F000F0
ENDCHAR
STARTCHAR LATIN
ENCODING 195
SWIDTH 500 0
DWIDTH 26 0
BBX 20 40 3 0
BITMAP
0FC0F0
3FE1F0
3FF1F0
F8FFC0
F83F80
F03F80
000000
000000
0FFF80
3FFFC0
3FFFC0
F801F0
F801F0
F000F0
E000F0
E000F0
E000F0
F000F0
E000F0
E000F0
E000F0
F000F0
FFFFF0
FFFFF0
FFFFF0
FFFFF0
F000F0
E00070
F000F0
F000F0
E00070
F000F0
F000F0
E00070
F000F0
E00070
F000F0
F000F0
E00070
F000F0
ENDCHAR
STARTCHAR LATIN
ENCODING 196
SWIDTH 500 0
DWIDTH 26 0
BBX 20 40 3 0
BITMAP
0E0780
0E0780
0E0780
0E0780
080000
000000
000000
000000
0FFF80
3FFFC0
3FFFC0
F801F0
F801F0
F000F0
E000F0
E000F0
E000F0
F000F0
E000F0
E000F0
E000F0
F000F0
FFFFF0
FFFFF0
FFFFF0
FFFFF0
F000F0
E00070
F000F0
F000F0
E00070
F000F0
F000F0
E00070
F000F0
E00070
F000F0
F000F0
E00070
F000F0
ENDCHAR
STARTCHAR LATIN
ENCODING 197
SWIDTH 500 0
DWIDTH 26 0
BBX 20 40 3 0
BITMAP
00F000
01F800
01F800
070E00
070E00
070E00
01F800
01F800
0FFF80
3FFFC0
3FFFC0
F801F0
F801F0
F000F0
E000F0
E000F0
E000F0
F000F0
E000F0
E000F0
E000F0
F000F0
FFFFF0
FFFFF0
FFFFF0
FFFFF0
F000F0
E00070
F000F0
F000F0
E00070
F000F0
F000F0
E00070
F000F0
E00070
F000F0
F000F0
E00070
F000F0
ENDCHAR
STARTCHAR LATIN
ENCODING 198
SWIDTH 500 0
DWIDTH 26 0
BBX 20 32 3 0
BITMAP
0FFFF0
3FFFF0
3FFFF0
F83800
F83800
F03800
E03800
E03800
E03800
F03800
E03800
E03800
E03800
F03800
FFFFE0
FFFFF0
FFFFF0
FFFFE0
F03800
E03800
F03800
F03800
E03800
F03800
F03800
E03800
F03800
E03800
F03800
F03FF0
E03FF0
F03FF0
ENDCHAR
STARTCHAR LATIN
ENCODING 199
SWIDTH 500 0
DWIDTH 26 0
BBX 20 42 3 -10
BITMAP
0FFFF0
3FFFF0
3FFFF0
F80000
F80000
F00000
E00000
E00000
E00000
F00000
E00000
E00000
E00000
F00000
E00000
E00000
F00000
E00000
F00000
E00000
F00000
F00000
E00000
F00000
F00000
E00000
F00000
F80000
F80000
3FFFF0
3FFFF0
1FFFF0
003800
003800
003800
003800
003800
00F800
00F800
01F000
01C000
01C000
ENDCHAR
STARTCHAR LATIN
ENCODING 200
SWIDTH 500 0
DWIDTH 26 0
BBX 20 40 3 0
BITMAP
07C000
01E000
01F000
00F800
003C00
003E00
000000
000000
0FFFF0
3FFFF0
3FFFF0
F80000
F80000
F00000
E00000
E00000
E00000
F00000
E00000
E00000
E00000
F00000
FFFE00
FFFE00
FFFE00
FFFE00
F00000
E00000
F00000
F00000
E00000
F00000
F00000
E00000
F00000
F80000
F80000
3FFFF0
3FFFF0
1FFFF0
ENDCHAR
STARTCHAR LATIN
ENCODING 201
SWIDTH 500 0
DWIDTH 26 0
BBX 20 40 3 0
BITMAP
003E00
007800
00F800
01F000
03C000
07C000
000000
000000
0FFFF0
3FFFF0
3FFFF0
F80000
F80000
F00000
E00000
E00000
E00000
F00000
E00000
E00000
E00000
F00000
FFFE00
FFFE00
FFFE00
FFFE00
F00000
E00000
F00000
F00000
E00000
F00000
F00000
E00000
F00000
F80000
F80000
3FFFF0
3FFFF0
1FFFF0
ENDCHAR
STARTCHAR LATIN
ENCODING 202
SWIDTH 500 0
DWIDTH 26 0
BBX 20 42 3 0
BITMAP
00F000
00F000
01F800
07FE00
07FE00
0F0F80
0A0800
000000
000000
000000
0FFFF0
3FFFF0
3FFFF0
F80000
F80000
F00000
E00000
E00000
E00000
F00000
E00000
E00000
E00000
F00000
FFFE00
FFFE00
FFFE00
FFFE00
F00000
E00000
F00000
F00000
E00000
F00000
F00000
E00000
F00000
F80000
F80000
3FFFF0
3FFFF0
1FFFF0
ENDCHAR
STARTCHAR LATIN
ENCODING 203
SWIDTH 500 0
DWIDTH 26 0
BBX 20 40 3 0
BITMAP
0E0780
0E0780
0E0780
0E0780
080000
000000
000000
000000
0FFFF0
3FFFF0
3FFFF0
F80000
F80000
F00000
E00000
E00000
E00000
F00000
E00000
E00000
E00000
F00000
FFFE00
FFFE00
FFFE00
FFFE00
F00000
E00000
F00000
F00000
E00000
F00000
F00000
E00000
F00000
F80000
F80000
3FFFF0
3FFFF0
1FFFF0
ENDCHAR
STARTCHAR LATIN
ENCODING 204
SWIDTH 500 0
DWIDTH 26 0
BBX 16 40 5 0
BITMAP
1F00
0780
07C0
03E0
00F0
00F8
0000
0000
FFFF
FFFF
FFFF
03C0
03C0
03C0
03C0
03C0
03C0
03C0
03C0
03C0
03C0
03C0
03C0
03C0
03C0
03C0
03C0
03C0
03C0
03C0
03C0
03C0
03C0
03C0
03C0
03C0
03C0
FFFF
FFFF
FFFF
ENDCHAR
STARTCHAR LATIN
ENCODING 205
SWIDTH 500 0
DWIDTH 26 0
BBX 16 40 5 0
BITMAP
00F8
01E0
03E0
07C0
0F00
1F00
0000
0000
FFFF
FFFF
FFFF
03C0
03C0
03C0
03C0
03C0
03C0
03C0
03C0
03C0
03C0
03C0
03C0
03C0
03C0
03C0
03C0
03C0
03C0
03C0
03C0
03C0
03C0
03C0
03C0
03C0
03C0
FFFF
FFFF
FFFF
ENDCHAR
STARTCHAR LATIN
ENCODING 206
SWIDTH 500 0
DWIDTH 26 0
BBX 16 42 5 0
BITMAP
03C0
03C0
07E0
1FF8
1FF8
3C3E
2820
0000
0000
0000
FFFF
FFFF
FFFF
03C0
03C0
03C0
03C0
03C0
03C0
03C0
03C0
03C0
03C0
03C0
03C0
03C0
03C0
03C0
03C0
03C0
03C0
03C0
03C0
03C0
03C0
03C0
03C0
03C0
03C0
FFFF
FFFF
FFFF
ENDCHAR
STARTCHAR LATIN
ENCODING 207
SWIDTH 500 0
DWIDTH 26 0
BBX 16 40 5 0
BITMAP
381E
381E
381E
381E
2000
0000
0000
0000
FFFF
FFFF
FFFF
03C0
03C0
03C0
03C0
03C0
03C0
03C0
03C0
03C0
03C0
03C0
03C0
03C0
03C0
03C0
03C0
03C0
03C0
03C0
03C0
03C0
03C0
03C0
03C0
03C0
03C0
FFFF
FFFF
FFFF
ENDCHAR
STARTCHAR LATIN
ENCODING 208
SWIDTH 500 0
DWIDTH 26 0
BBX 23 32 0 0
BITMAP
1FFFF0
1FFFF8
1FFFF8
1C003E
1C003E
1E001E
1C001E
1C001E
1C001E
1E001E
1C001E
1C001E
1C001E
1E001E
FFF81E
FFF81E
FFF81E
FFF80E
1E001E
1C000E
1E001E
1E001E
1C000E
1E001E
1E001E
1C000E
1E001E
1C003E
1E003E
1FFFF8
1FFFF8
1FFFF0
ENDCHAR
STARTCHAR LATIN
ENCODING 209
SWIDTH 500 0
DWIDTH 26 0
BBX 20 40 3 0
BITMAP
0FC0F0
3FE1F0
3FF1F0
F8FFC0
F83F80
F03F80
000000
000000
E000F0
F000F0
E000F0
F800F0
F800F0
F800F0
FE00F0
FE00F0
FE00F0
FF00F0
E700F0
E700F0
E780F0
F1C0F0
E1C0F0
E1C0F0
F0F0F0
E0F070
F0F0F0
E03870
F038F0
F038F0
E01C70
F00EF0
F00EF0
E00EF0
F007F0
E007F0
F007F0
F001F0
E001F0
F001F0
ENDCHAR
STARTCHAR LATIN
ENCODING 210
SWIDTH 500 0
DWIDTH 26 0
BBX 20 40 3 0
BITMAP
07C000
01E000
01F000
00F800
003C00
003E00
000000
000000
0FFF80
3FFFC0
3FFFC0
F801F0
F801F0
F000F0
E000F0
E000F0
E000F0
F000F0
E000F0
E000F0
E000F0
F000F0
E000F0
E000F0
F000F0
E00070
F000F0
E00070
F000F0
F000F0
E00070
F000F0
F000F0
E00070
F000F0
F801F0
F801F0
3FFFC0
3FFFC0
1FFF80
ENDCHAR
STARTCHAR LATIN
ENCODING 211
SWIDTH 500 0
DWIDTH 26 0
BBX 20 40 3 0
BITMAP
003E00
007800
00F800
01F000
03C000
07C000
000000
000000
0FFF80
3FFFC0
3FFFC0
F801F0
F801F0
F000F0
E000F0
E000F0
E000F0
F000F0
E000F0
E000F0
E000F0
F000F0
E000F0
E000F0
F000F0
E00070
F000F0
E00070
F000F0
F000F0
E00070
F000F0
F000F0
E00070
F000F0
F801F0
F801F0
3FFFC0
3FFFC0
1FFF80
ENDCHAR
STARTCHAR LATIN
ENCODING 212
SWIDTH 500 0
DWIDTH 26 0
BBX 20 42 3 0
BITMAP
00F000
00F000
01F800
07FE00
07FE00
0F0F80
0A0800
000000
000000
000000
0FFF80
3FFFC0
3FFFC0
F801F0
F801F0
F000F0
E000F0
E000F0
E000F0
F000F0
E000F0
E000F0
E000F0
F000F0
E000F0
E000F0
F000F0
E00070
F000F0
E00070
F000F0
F000F0
E00070
F000F0
F000F0
E00070
F000F0
F801F0
F801F0
3FFFC0
3FFFC0
1FFF80
ENDCHAR
STARTCHAR LATIN
ENCODING 213
SWIDTH 500 0
DWIDTH 26 0
BBX 20 40 3 0
BITMAP
0FC0F0
3FE1F0
3FF1F0
F8FFC0
F83F80
F03F80
000000
000000
0FFF80
3FFFC0
3FFFC0
F801F0
F801F0
F000F0
E000F0
E000F0
E000F0
F000F0
E000F0
E000F0
E000F0
F000F0
E000F0
E000F0
F000F0
E00070
F000F0
E00070
F000F0
F000F0
E00070
F000F0
F000F0
E00070
F000F0
F801F0
F801F0
3FFFC0
3FFFC0
1FFF80
ENDCHAR
STARTCHAR LATIN
ENCODING 214
SWIDTH 500 0
DWIDTH 26 0
BBX 20 40 3 0
BITMAP
0E0780
0E0780
0E0780
0E0780
080000
000000
000000
000000
0FFF80
3FFFC0
3FFFC0
F801F0
F801F0
F000F0
E000F0
E000F0
E000F0
F000F0
E000F0
E000F0
E000F0
F000F0
E000F0
E000F0
F000F0
E00070
F000F0
E00070
F000F0
F000F0
E00070
F000F0
F000F0
E00070
F000F0
F801F0
F801F0
3FFFC0
3FFFC0
1FFF80
ENDCHAR
STARTCHAR MULTIPLICATION
ENCODING 215
SWIDTH 500 0
DWIDTH 26 0
BBX 20 20 3 6
BITMAP
E00070
F000F0
F801F0
7C03E0
3E07C0
1F0F80
0F9F00
07FE00
03FC00
01F800
01F800
03FC00
07FE00
0F9F00
1F0F80
3E07C0
7C03E0
F801F0
F000F0
E00070
ENDCHAR
STARTCHAR LATIN
ENCODING 216
SWIDTH 500 0
DWIDTH 26 0
BBX 21 38 2 -3
BITMAP
000078
000078
000078
07FFE0
1FFFE0
1FFFE0
7C03F8
7C03F8
7803F8
700778
700778
700778
781E78
701C78
701C78
701C78
787878
707878
707878
78E078
70E038
78E078
73C038
7B8078
7B8078
7B0038
7F0078
7F0078
7F0038
7C0078
7C00F8
7C00F8
7FFFE0
7FFFE0
7FFFC0
E00000
E00000
E00000
ENDCHAR
STARTCHAR LATIN
ENCODING 217
SWIDTH 500 0
DWIDTH 26 0
BBX 20 40 3 0
BITMAP
07C000
01E000
01F000
00F800
003C00
003E00
000000
000000
E000F0
F000F0
E000F0
E000F0
E000F0
F000F0
E000F0
E000F0
E000F0
F000F0
E000F0
E000F0
E000F0
F000F0
E000F0
E000F0
F000F0
E00070
F000F0
E00070
F000F0
F000F0
E00070
F000F0
F000F0
E00070
F000F0
F80070
F800F0
3FFFF0
3FFFF0
1FFFF0
ENDCHAR
STARTCHAR LATIN
ENCODING 218
SWIDTH 500 0
DWIDTH 26 0
BBX 20 40 3 0
BITMAP
003E00
007800
00F800
01F000
03C000
07C000
000000
000000
E000F0
F000F0
E000F0
E000F0
E000F0
F000F0
E000F0
E000F0
E000F0
F000F0
E000F0
E000F0
E000F0
F000F0
E000F0
E000F0
F000F0
E00070
F000F0
E00070
F000F0
F000F0
E00070
F000F0
F000F0
E00070
F000F0
F80070
F800F0
3FFFF0
3FFFF0
1FFFF0
ENDCHAR
STARTCHAR LATIN
ENCODING 219
SWIDTH 500 0
DWIDTH 26 0
BBX 20 42 3 0
BITMAP
00F000
00F000
01F800
07FE00
07FE00
0F0F80
0A0800
000000
000000
000000
E000F0
F000F0
E000F0
E000F0
E000F0
F000F0
E000F0
E000F0
E000F0
F000F0
E000F0
E000F0
E000F0
F000F0
E000F0
E000F0
F000F0
E00070
F000F0
E00070
F000F0
F000F0
E00070
F000F0
F000F0
E00070
F000F0
F80070
F800F0
3FFFF0
3FFFF0
1FFFF0
ENDCHAR
STARTCHAR LATIN
ENCODING 220
SWIDTH 500 0
DWIDTH 26 0
BBX 20 40 3 0
BITMAP
0E0780
0E0780
0E0780
0E0780
080000
000000
000000
000000
E000F0
F000F0
E000F0
E000F0
E000F0
F000F0
E000F0
E000F0
E000F0
F000F0
E000F0
E000F0
E000F0
F000F0
E000F0
E000F0
F000F0
E00070
F000F0
E00070
F000F0
F000F0
E00070
F000F0
F000F0
E00070
F000F0
F80070
F800F0
3FFFF0
3FFFF0
1FFFF0
ENDCHAR
STARTCHAR LATIN
ENCODING 221
SWIDTH 500 0
DWIDTH 26 0
BBX 20 40 3 0
BITMAP
003E00
007800
00F800
01F000
03C000
07C000
000000
000000
E000F0
F000F0
E000F0
E000F0
E000F0
F000F0
E000F0
E000F0
E000F0
F000F0
E000F0
E000F0
F000F0
F800F0
3FFFF0
3FFFF0
1FFFF0
0FFFF0
0000F0
000070
0000F0
0000F0
000070
0000F0
0000F0
000070
0000F0
0001F0
0001F0
FFFFC0
FFFFC0
FFFF80
ENDCHAR
STARTCHAR LATIN
ENCODING 222
SWIDTH 500 0
DWIDTH 26 0
BBX 20 36 3 -7
BITMAP
E00000
E00000
F00000
E00000
E00000
E00000
FFFF00
FFFF80
FFFFC0
FFFFC0
F001F0
E000F0
E000F0
F000F0
E00070
F000F0
E00070
F000F0
F000F0
E00070
F000F0
F000F0
E00070
F000F0
E001F0
F001F0
FFFFC0
FFFFC0
FFFF80
F00000
F00000
F00000
E00000
F00000
F00000
E00000
ENDCHAR
STARTCHAR LATIN
ENCODING 223
SWIDTH 500 0
DWIDTH 26 0
BBX 20 32 3 0
BITMAP
0FF800
3FFE00
3FFE00
F80F80
F80F80
F00780
E00780
E00780
E00780
F00780
E00780
E00F80
F01F00
FFFE00
FFFC00
FFF800
F0FF80
E07F80
F00FC0
E001F0
F001F0
F000F0
E00070
F000F0
F000F0
F00070
FE00F0
FF01F0
FF01F0
F7FFC0
E7FFC0
F1FF80
ENDCHAR
STARTCHAR LATIN
ENCODING 224
SWIDTH 500 0
DWIDTH 26 0
BBX 20 36 3 0
BITMAP
020000
070000
07C000
07C000
01F000
00F800
00F800
003E00
003E00
000E00
000000
000000
000000
3FFF00
3FFF80
3FFFC0
3FFFC0
0001F0
0000F0
0000F0
0000F0
0000F0
1FFFF0
3FFFF0
3FFFF0
F800F0
F00070
F000F0
F000F0
E00070
F000F0
F80070
F800F0
3FFFF0
3FFFF0
1FFFF0
ENDCHAR
STARTCHAR LATIN
ENCODING 225
SWIDTH 500 0
DWIDTH 26 0
BBX 20 35 3 0
BITMAP
000780
000F80
001F00
003E00
007C00
00F800
01F000
01E000
01C000
000000
000000
000000
3FFF00
3FFF80
3FFFC0
3FFFC0
0001F0
0000F0
0000F0
0000F0
0000F0
1FFFF0
3FFFF0
3FFFF0
F800F0
F00070
F000F0
F000F0
E00070
F000F0
F80070
F800F0
3FFFF0
3FFFF0
1FFFF0
ENDCHAR
STARTCHAR LATIN
ENCODING 226
SWIDTH 500 0
DWIDTH 26 0
BBX 20 35 3 0
BITMAP
00F000
01F800
01F800
07FE00
0F9F00
0F0F80
3E07C0
3C03C0
3801C0
000000
000000
000000
3FFF00
3FFF80
3FFFC0
3FFFC0
0001F0
0000F0
0000F0
0000F0
0000F0
1FFFF0
3FFFF0
3FFFF0
F800F0
F00070
F000F0
F000F0
E00070
F000F0
F80070
F800F0
3FFFF0
3FFFF0
1FFFF0
ENDCHAR
STARTCHAR LATIN
ENCODING 227
SWIDTH 500 0
DWIDTH 26 0
BBX 20 36 3 0
BITMAP
0A0000
1F00F0
3FC0F0
3FC0F0
F9F1F0
F0FFC0
E0FFC0
E03F80
603F00
000000
000000
000000
000000
3FFF00
3FFF80
3FFFC0
3FFFC0
0001F0
0000F0
0000F0
0000F0
0000F0
1FFFF0
3FFFF0
3FFFF0
F800F0
F00070
F000F0
F000F0
E00070
F000F0
F80070
F800F0
3FFFF0
3FFFF0
1FFFF0
ENDCHAR
STARTCHAR LATIN
ENCODING 228
SWIDTH 500 0
DWIDTH 26 0
BBX 20 32 3 0
BITMAP
0E0780
1E0780
0E0780
0E0780
0C0300
000000
000000
000000
000000
3FFF00
3FFF80
3FFFC0
3FFFC0
0001F0
0000F0
0000F0
0000F0
0000F0
1FFFF0
3FFFF0
3FFFF0
F800F0
F00070
F000F0
F000F0
E00070
F000F0
F80070
F800F0
3FFFF0
3FFFF0
1FFFF0
ENDCHAR
STARTCHAR LATIN
ENCODING 229
SWIDTH 500 0
DWIDTH 26 0
BBX 20 36 3 0
BITMAP
000800
00F800
01FE00
01FE00
070780
070780
070780
070780
078700
01FE00
00F800
00F800
000000
3FFF00
3FFF80
3FFFC0
3FFFC0
0001F0
0000F0
0000F0
0000F0
0000F0
1FFFF0
3FFFF0
3FFFF0
F800F0
F00070
F000F0
F000F0
E00070
F000F0
F80070
F800F0
3FFFF0
3FFFF0
1FFFF0
ENDCHAR
STARTCHAR LATIN
ENCODING 230
SWIDTH 500 0
DWIDTH 26 0
BBX 23 23 3 0
BITMAP
3FC3FE
3FC7FE
3FFFFE
3FFFFE
00FE0E
003C0E
00380E
00380E
00380E
1FF80E
3FFFFE
3FFFFE
F83FFE
F03C00
F03800
F03800
E03800
F03800
F87E00
F8FE00
3FFFFE
3FFFFE
1FC7FE
ENDCHAR
STARTCHAR LATIN
ENCODING 231
SWIDTH 500 0
DWIDTH 26 0
BBX 20 33 3 -10
BITMAP
0FFFE0
0FFFF0
3FFFF0
3FFFF0
F80000
F00000
E00000
F00000
E00000
F00000
E00000
F00000
F00000
E00000
F00000
F00000
E00000
F00000
F80000
F80000
3FFFF0
3FFFF0
1FFFF0
003800
003800
003800
003800
003800
00F800
00F800
01F000
01C000
01C000
ENDCHAR
STARTCHAR LATIN
ENCODING 232
SWIDTH 500 0
DWIDTH 26 0
BBX 20 36 3 0
BITMAP
020000
070000
07C000
07C000
01F000
00F800
00F800
003E00
003E00
000E00
000000
000000
000000
0FFFE0
0FFFF0
3FFFF0
3FFFF0
F800F0
F000F0
E000F0
F000F0
E00070
F000F0
FFFFF0
FFFFF0
FFFFF0
F00000
F00000
F00000
E00000
F00000
F80000
F80000
3FFFF0
3FFFF0
1FFFF0
ENDCHAR
STARTCHAR LATIN
ENCODING 233
SWIDTH 500 0
DWIDTH 26 0
BBX 20 35 3 0
BITMAP
000780
000F80
001F00
003E00
007C00
00F800
01F000
01E000
01C000
000000
000000
000000
0FFFE0
0FFFF0
3FFFF0
3FFFF0
F800F0
F000F0
E000F0
F000F0
E00070
F000F0
FFFFF0
FFFFF0
FFFFF0
F00000
F00000
F00000
E00000
F00000
F80000
F80000
3FFFF0
3FFFF0
1FFFF0
ENDCHAR
STARTCHAR LATIN
ENCODING 234
SWIDTH 500 0
DWIDTH 26 0
BBX 20 35 3 0
BITMAP
00F000
01F800
01F800
07FE00
0F9F00
0F0F80
3E07C0
3C03C0
3801C0
000000
000000
000000
0FFFE0
0FFFF0
3FFFF0
3FFFF0
F800F0
F000F0
E000F0
F000F0
E00070
F000F0
FFFFF0
FFFFF0
FFFFF0
F00000
F00000
F00000
E00000
F00000
F80000
F80000
3FFFF0
3FFFF0
1FFFF0
ENDCHAR
STARTCHAR LATIN
ENCODING 235
SWIDTH 500 0
DWIDTH 26 0
BBX 20 32 3 0
BITMAP
0E0780
1E0780
0E0780
0E0780
0C0300
000000
000000
000000
000000
0FFFE0
0FFFF0
3FFFF0
3FFFF0
F800F0
F000F0
E000F0
F000F0
E00070
F000F0
FFFFF0
FFFFF0
FFFFF0
F00000
F00000
F00000
E00000
F00000
F80000
F80000
3FFFF0
3FFFF0
1FFFF0
ENDCHAR
STARTCHAR LATIN
ENCODING 236
SWIDTH 500 0
DWIDTH 26 0
BBX 10 36 8 0
BITMAP
4000
E000
F800
F800
3E00
1F00
1F00
07C0
07C0
01C0
0000
0000
0000
0C00
1E00
1E00
1E00
1E00
1E00
1E00
1E00
1E00
1E00
1E00
1E00
1E00
1E00
1E00
1E00
1E00
1E00
1E00
1E00
1E00
1E00
1E00
ENDCHAR
STARTCHAR LATIN
ENCODING 237
SWIDTH 500 0
DWIDTH 26 0
BBX 10 36 8 0
BITMAP
0100
01C0
07C0
07C0
1F00
3E00
3E00
F800
F800
E000
0000
0000
0000
0C00
1E00
1E00
1E00
1E00
1E00
1E00
1E00
1E00
1E00
1E00
1E00
1E00
1E00
1E00
1E00
1E00
1E00
1E00
1E00
1E00
1E00
1E00
ENDCHAR
STARTCHAR LATIN
ENCODING 238
SWIDTH 500 0
DWIDTH 26 0
BBX 16 35 5 0
BITMAP
03C0
07E0
07E0
1FF8
3E7C
3C3E
F81F
F00F
E007
0000
0000
0000
0180
03C0
03C0
03C0
03C0
03C0
03C0
03C0
03C0
03C0
03C0
03C0
03C0
03C0
03C0
03C0
03C0
03C0
03C0
03C0
03C0
03C0
03C0
ENDCHAR
STARTCHAR LATIN
ENCODING 239
SWIDTH 500 0
DWIDTH 26 0
BBX 14 32 6 0
BITMAP
703C
F03C
703C
703C
6018
0000
0000
0000
0000
0300
0780
0780
0780
0780
0780
0780
0780
0780
0780
0780
0780
0780
0780
0780
0780
0780
0780
0780
0780
0780
0780
0780
ENDCHAR
STARTCHAR LATIN
ENCODING 240
SWIDTH 500 0
DWIDTH 26 0
BBX 20 34 3 0
BITMAP
38F000
38F000
38F000
1FC000
0FC000
0FC000
1FC000
3FF000
38F800
38F800
003E00
0FFF00
0FFF80
3FFFC0
3FFFC0
F801F0
F000F0
E000F0
F000F0
E00070
F000F0
E00070
F000F0
F000F0
E00070
F000F0
F000F0
E00070
F000F0
F801F0
F801F0
3FFFC0
3FFFC0
1FFF80
ENDCHAR
STARTCHAR LATIN
ENCODING 241
SWIDTH 500 0
DWIDTH 26 0
BBX 20 36 3 0
BITMAP
0A0000
1F00F0
3FC0F0
3FC0F0
F9F1F0
F0FFC0
E0FFC0
E03F80
603F00
000000
000000
000000
000000
7FFF00
FFFF80
FFFFC0
FFFFC0
F001F0
E000F0
E000F0
F000F0
E00070
F000F0
E00070
F000F0
F000F0
E00070
F000F0
F000F0
E00070
F000F0
E00070
F000F0
F000F0
E00070
F000F0
ENDCHAR
STARTCHAR LATIN
ENCODING 242
SWIDTH 500 0
DWIDTH 26 0
BBX 20 36 3 0
BITMAP
020000
070000
07C000
07C000
01F000
00F800
00F800
003E00
003E00
000E00
000000
000000
000000
0FFF00
0FFF80
3FFFC0
3FFFC0
F801F0
F000F0
E000F0
F000F0
E00070
F000F0
E00070
F000F0
F000F0
E00070
F000F0
F000F0
E00070
F000F0
F801F0
F801F0
3FFFC0
3FFFC0
1FFF80
ENDCHAR
STARTCHAR LATIN
ENCODING 243
SWIDTH 500 0
DWIDTH 26 0
BBX 20 36 3 0
BITMAP
000800
000E00
003E00
003E00
00F800
01F000
01F000
07C000
07C000
070000
000000
000000
000000
0FFF00
0FFF80
3FFFC0
3FFFC0
F801F0
F000F0
E000F0
F000F0
E00070
F000F0
E00070
F000F0
F000F0
E00070
F000F0
F000F0
E00070
F000F0
F801F0
F801F0
3FFFC0
3FFFC0
1FFF80
ENDCHAR
STARTCHAR LATIN
ENCODING 244
SWIDTH 500 0
DWIDTH 26 0
BBX 20 35 3 0
BITMAP
00F000
01F800
01F800
07FE00
0F9F00
0F0F80
3E07C0
3C03C0
3801C0
000000
000000
000000
0FFF00
0FFF80
3FFFC0
3FFFC0
F801F0
F000F0
E000F0
F000F0
E00070
F000F0
E00070
F000F0
F000F0
E00070
F000F0
F000F0
E00070
F000F0
F801F0
F801F0
3FFFC0
3FFFC0
1FFF80
ENDCHAR
STARTCHAR LATIN
ENCODING 245
SWIDTH 500 0
DWIDTH 26 0
BBX 20 36 3 0
BITMAP
0A0000
1F00F0
3FC0F0
3FC0F0
F9F1F0
F0FFC0
E0FFC0
E03F80
603F00
000000
000000
000000
000000
0FFF00
0FFF80
3FFFC0
3FFFC0
F801F0
F000F0
E000F0
F000F0
E00070
F000F0
E00070
F000F0
F000F0
E00070
F000F0
F000F0
E00070
F000F0
F801F0
F801F0
3FFFC0
3FFFC0
1FFF80
ENDCHAR
STARTCHAR LATIN
ENCODING 246
SWIDTH 500 0
DWIDTH 26 0
BBX 20 32 3 0
BITMAP
0E0780
1E0780
0E0780
0E0780
0C0300
000000
000000
000000
000000
0FFF00
0FFF80
3FFFC0
3FFFC0
F801F0
F000F0
E000F0
F000F0
E00070
F000F0
E00070
F000F0
F000F0
E00070
F000F0
F000F0
E00070
F000F0
F801F0
F801F0
3FFFC0
3FFFC0
1FFF80
ENDCHAR
STARTCHAR DIVISION
ENCODING 247
SWIDTH 500 0
DWIDTH 26 0
BBX 16 19 5 5
BITMAP
03C0
03C0
03C0
03C0
0180
0000
0000
0000
FFFF
FFFF
FFFF
0000
0000
0000
0000
03C0
03C0
03C0
03C0
ENDCHAR
STARTCHAR LATIN
ENCODING 248
SWIDTH 500 0
DWIDTH 26 0
BBX 22 23 2 0
BITMAP
07FF8C
07FFDC
1FFFFC
1FFFFC
7C00F8
7801F8
7003F8
7807F8
700FF8
781F78
703C38
787C78
78F878
71E038
7BE078
7F8078
7F8038
7F0078
7C00F8
7C00F8
FFFFE0
FFFFE0
EFFFC0
ENDCHAR
STARTCHAR LATIN
ENCODING 249
SWIDTH 500 0
DWIDTH 26 0
BBX 20 36 3 0
BITMAP
020000
070000
07C000
07C000
01F000
00F800
00F800
003E00
003E00
000E00
000000
000000
000000
600060
E000F0
E000F0
E000F0
F000F0
E000F0
E000F0
F000F0
E00070
F000F0
E00070
F000F0
F000F0
E00070
F000F0
F000F0
E00070
F000F0
F80070
F800F0
3FFFF0
3FFFF0
1FFFF0
ENDCHAR
STARTCHAR LATIN
ENCODING 250
SWIDTH 500 0
DWIDTH 26 0
BBX 20 36 3 0
BITMAP
000800
000E00
003E00
003E00
00F800
01F000
01F000
07C000
07C000
070000
000000
000000
000000
600060
E000F0
E000F0
E000F0
F000F0
E000F0
E000F0
F000F0
E00070
F000F0
E00070
F000F0
F000F0
E00070
F000F0
F000F0
E00070
F000F0
F80070
F800F0
3FFFF0
3FFFF0
1FFFF0
ENDCHAR
STARTCHAR LATIN
ENCODING 251
SWIDTH 500 0
DWIDTH 26 0
BBX 20 35 3 0
BITMAP
00F000
01F800
01F800
07FE00
0F9F00
0F0F80
3E07C0
3C03C0
3801C0
000000
000000
000000
600060
E000F0
E000F0
E000F0
F000F0
E000F0
E000F0
F000F0
E00070
F000F0
E00070
F000F0
F000F0
E00070
F000F0
F000F0
E00070
F000F0
F80070
F800F0
3FFFF0
3FFFF0
1FFFF0
ENDCHAR
STARTCHAR LATIN
ENCODING 252
SWIDTH 500 0
DWIDTH 26 0
BBX 20 32 3 0
BITMAP
0E0780
1E0780
0E0780
0E0780
0C0300
000000
000000
000000
000000
600060
E000F0
E000F0
E000F0
F000F0
E000F0
E000F0
F000F0
E00070
F000F0
E00070
F000F0
F000F0
E00070
F000F0
F000F0
E00070
F000F0
F80070
F800F0
3FFFF0
3FFFF0
1FFFF0
ENDCHAR
STARTCHAR LATIN
ENCODING 253
SWIDTH 500 0
DWIDTH 26 0
BBX 20 46 3 -10
BITMAP
000800
000E00
003E00
003E00
00F800
01F000
01F000
07C000
07C000
070000
000000
000000
000000
600060
E000F0
E000F0
E000F0
F000F0
E000F0
E000F0
F000F0
E00070
F000F0
E00070
F000F0
F000F0
E00070
F000F0
F000F0
E00070
F000F0
F80070
F800F0
3FFFF0
3FFFF0
1FFFF0
0000F0
0000F0
0000F0
000070
0000F0
0001F0
0001F0
FFFFC0
FFFF80
FFFF80
ENDCHAR
STARTCHAR LATIN
ENCODING 254
SWIDTH 500 0
DWIDTH 26 0
BBX 20 42 3 -10
BITMAP
E00000
F00000
E00000
E00000
E00000
F00000
E00000
E00000
E00000
FFFF00
FFFF80
FFFFC0
FFFFC0
F001F0
E000F0
E000F0
F000F0
E00070
F000F0
E00070
F000F0
F000F0
E00070
F000F0
F000F0
E00070
F000F0
E001F0
F001F0
FFFFC0
FFFFC0
FFFF80
F00000
F00000
F00000
E00000
F00000
F00000
E00000
F00000
E00000
F00000
ENDCHAR
STARTCHAR LATIN
ENCODING 255
SWIDTH 500 0
DWIDTH 26 0
BBX 20 42 3 -10
BITMAP
0E0780
1E0780
0E0780
0E0780
0C0300
000000
000000
000000
000000
600060
E000F0
E000F0
E000F0
F000F0
E000F0
E000F0
F000F0
E00070
F000F0
E00070
F000F0
F000F0
E00070
F000F0
F000F0
E00070
F000F0
F80070
F800F0
3FFFF0
3FFFF0
1FFFF0
0000F0
0000F0
0000F0
000070
0000F0
0001F0
0001F0
FFFFC0
FFFF80
FFFF80
ENDCHAR
ENDFONT
